<svg width="64" height="64" viewBox="0 0 64 64" fill="none" xmlns="http://www.w3.org/2000/svg">
<g clip-path="url(#clip0_6_125)">
<path d="M24.0892 17.75H13.4006C9.76029 17.75 7.93877 17.75 6.54834 18.4585C5.32529 19.0816 4.33163 20.0753 3.70846 21.2983C3 22.6888 3 24.5103 3 28.1506V46.3506C3 49.991 3 51.8086 3.70846 53.199C4.33163 54.4221 5.32529 55.4191 6.54834 56.0422C7.93741 56.75 9.75673 56.75 13.39 56.75H51.11C54.7433 56.75 56.56 56.75 57.949 56.0422C59.1721 55.4191 60.1691 54.4221 60.7922 53.199C61.5 51.81 61.5 49.9933 61.5 46.36V28.14C61.5 24.5067 61.5 22.6874 60.7922 21.2983C60.1691 20.0753 59.1721 19.0816 57.949 18.4585C56.5586 17.75 54.741 17.75 51.1006 17.75H40.4102M24.0892 17.75H24.29M24.0892 17.75C24.1299 17.75 24.1727 17.75 24.2178 17.75L24.29 17.75M24.0892 17.75C23.7443 17.7499 23.551 17.7481 23.3982 17.731C21.4885 17.5171 20.1788 15.6995 20.5798 13.8202C20.6172 13.6453 20.6909 13.4241 20.837 12.9859L20.8433 12.9673C21.0101 12.4669 21.0935 12.2167 21.1856 11.9958C22.1291 9.73514 24.2655 8.19769 26.7085 8.01759C26.9471 8 27.2093 8 27.7368 8H36.7629C37.2904 8 37.5548 8 37.7934 8.01759C40.2364 8.19769 42.3706 9.73514 43.314 11.9958C43.4061 12.2167 43.4899 12.4666 43.6567 12.967C43.807 13.4177 43.8821 13.6432 43.92 13.8205C44.321 15.6998 43.0134 17.5171 41.1037 17.731C40.9509 17.7481 40.7557 17.7499 40.4102 17.75M24.29 17.75H40.2092M40.2092 17.75H40.4102M40.2092 17.75L40.2813 17.75C40.3265 17.75 40.3694 17.75 40.4102 17.75M32.25 47C26.8652 47 22.5 42.6348 22.5 37.25C22.5 31.8652 26.8652 27.5 32.25 27.5C37.6348 27.5 42 31.8652 42 37.25C42 42.6348 37.6348 47 32.25 47Z" stroke="#4D7500" stroke-width="6" stroke-linecap="round" stroke-linejoin="round"/>
</g>
<defs>
<clipPath id="clip0_6_125">
<rect width="64" height="64" fill="white"/>
</clipPath>
</defs>
</svg>
