<svg width="64" height="64" viewBox="0 0 64 64" fill="none" xmlns="http://www.w3.org/2000/svg">
<path d="M10 56.0001V10.0987C10 9.17565 10.4252 8.304 11.1523 7.73542C15.2025 4.5685 19.1986 3.67817 23.0801 4.09675C26.7446 4.49203 30.1882 6.05939 33.0977 7.35945C36.1935 8.74277 38.7563 9.85922 41.3115 10.1348C43.6497 10.387 46.0876 9.93482 48.9004 7.73542C49.8041 7.02894 51.0314 6.89983 52.0625 7.40242C53.0936 7.90508 53.748 8.95159 53.748 10.0987V36.9317C53.748 37.8548 53.3229 38.7264 52.5957 39.295C48.5455 42.4618 44.5494 43.3522 40.668 42.9337C37.0033 42.5385 33.5599 40.9709 30.6504 39.671C27.5547 38.2879 24.9925 37.1722 22.4375 36.8966C20.4239 36.6794 18.3373 36.986 16 38.4796V56.0001C16 57.6569 14.6569 59.0001 13 59.0001C11.3431 59.0001 10 57.6569 10 56.0001ZM22.4375 10.0626C20.4239 9.84538 18.3372 10.1521 16 11.6456V31.793C18.3925 30.8984 20.7568 30.6802 23.0801 30.9307C26.7446 31.3259 30.1882 32.8925 33.0977 34.1925C36.1935 35.5757 38.7563 36.6923 41.3115 36.9678C43.325 37.1849 45.4109 36.8774 47.748 35.3839V15.2374C45.3555 16.1321 42.9913 16.3512 40.668 16.1007C37.0034 15.7054 33.5599 14.138 30.6504 12.838C27.5548 11.4547 24.9925 10.3383 22.4375 10.0626Z" fill="#4D7500"/>
</svg>
