<svg width="48" height="48" viewBox="0 0 48 48" fill="none" xmlns="http://www.w3.org/2000/svg">
<path d="M26.8947 30.9474V32.2105C26.8947 34.3034 25.1981 36 23.1053 36C21.0124 36 19.3158 34.3034 19.3158 32.2105V30.9475M26.8947 30.9474L19.3158 30.9475M26.8947 30.9474H31.9474C32.645 30.9474 33.2105 30.3819 33.2105 29.6842V28.9441C33.2105 28.6091 33.0773 28.288 32.8405 28.051L32.1953 27.4058C32.0365 27.2471 31.9474 27.0315 31.9474 26.8069V22.1053C31.9474 21.8824 31.9393 21.6613 31.9227 21.4435M19.3158 30.9475L14.2632 30.9475C13.5655 30.9475 13 30.3816 13 29.6839V28.9441C13 28.6091 13.1332 28.2883 13.3701 28.0513L14.0152 27.4053C14.174 27.2465 14.2632 27.0319 14.2632 26.8073V22.1052C14.2632 17.2219 18.2219 13.2632 23.1053 13.2632C24.0041 13.2632 24.8717 13.3973 25.689 13.6466M31.9227 21.4435C33.4465 20.5734 34.4737 18.933 34.4737 17.0526C34.4737 14.2621 32.2115 12 29.4211 12C27.9429 12 26.6129 12.6348 25.689 13.6466M31.9227 21.4435C31.1851 21.8646 30.3312 22.1053 29.4211 22.1053C26.6306 22.1053 24.3684 19.8431 24.3684 17.0526C24.3684 15.7403 24.8687 14.5449 25.689 13.6466M31.9227 21.4435C31.9227 21.4435 31.9227 21.4435 31.9227 21.4435ZM25.689 13.6466C25.6896 13.6468 25.6902 13.647 25.6907 13.6472" stroke="#E0E561" stroke-width="1.61" stroke-linecap="round" stroke-linejoin="round"/>
<circle cx="29" cy="17" r="5" fill="#E0E561"/>
</svg>
