<svg width="48" height="48" viewBox="0 0 48 48" fill="none" xmlns="http://www.w3.org/2000/svg">
<path d="M28.0168 30.8395V32.1138C28.0168 34.2251 26.3053 35.9366 24.194 35.9366C22.0828 35.9366 20.3713 34.2251 20.3713 32.1138V30.8395M28.0168 30.8395H20.3713M28.0168 30.8395H32.592C33.0794 30.8396 33.3243 30.8396 33.5217 30.773C33.8987 30.6458 34.1937 30.3498 34.3209 29.9728C34.3877 29.7746 34.3877 29.529 34.3877 29.0377C34.3877 28.8227 34.3875 28.7152 34.3706 28.6127C34.3388 28.419 34.2637 28.2354 34.1492 28.076C34.0887 27.9917 34.0118 27.9148 33.8603 27.7633L33.3639 27.2669C33.2038 27.1068 33.1138 26.8895 33.1138 26.6631V21.9198C33.1138 16.9935 29.1203 13 24.194 13C19.2678 13 15.2743 16.9935 15.2743 21.9198V26.6631C15.2743 26.8896 15.1841 27.1068 15.0239 27.2669L14.5276 27.7632C14.3756 27.9153 14.2995 27.9916 14.2389 28.076C14.1244 28.2354 14.0486 28.419 14.0168 28.6127C14 28.7152 14 28.8227 14 29.0377C14 29.529 14 29.7746 14.0668 29.9727C14.194 30.3497 14.4903 30.6458 14.8673 30.773C15.0647 30.8396 15.3087 30.8396 15.7961 30.8395H20.3713" stroke="#E0E561" stroke-width="1.60958" stroke-linecap="round" stroke-linejoin="round"/>
</svg>
