<svg width="48" height="48" viewBox="0 0 48 48" fill="none" xmlns="http://www.w3.org/2000/svg">
<path d="M30.8395 33.1138C30.8395 31.0025 27.987 29.291 24.4683 29.291C20.9495 29.291 18.097 31.0025 18.097 33.1138M35.9366 29.2915C35.9366 27.7239 34.364 26.3767 32.1138 25.7868M13 29.2915C13 27.7239 14.5725 26.3767 16.8228 25.7868M32.1138 20.6721C32.8959 19.9722 33.3881 18.9549 33.3881 17.8228C33.3881 15.7115 31.6765 14 29.5653 14C28.5862 14 27.6931 14.3681 27.0168 14.9734M16.8228 20.6721C16.0407 19.9722 15.5485 18.9549 15.5485 17.8228C15.5485 15.7115 17.26 14 19.3713 14C20.3503 14 21.2435 14.3681 21.9198 14.9734M24.4683 25.4683C22.357 25.4683 20.6455 23.7568 20.6455 21.6455C20.6455 19.5343 22.357 17.8228 24.4683 17.8228C26.5795 17.8228 28.291 19.5343 28.291 21.6455C28.291 23.7568 26.5795 25.4683 24.4683 25.4683Z" stroke="#E0E561" stroke-width="1.60958" stroke-linecap="round" stroke-linejoin="round"/>
</svg>
