<svg width="48" height="48" viewBox="0 0 48 48" fill="none" xmlns="http://www.w3.org/2000/svg">
<mask id="path-1-inside-1_3_86" fill="white">
<path fill-rule="evenodd" clip-rule="evenodd" d="M12.6817 11.0206C13.3002 11.0036 16.3065 10.9497 16.7159 11.1329C16.8751 11.2042 17.0275 11.3261 17.1583 11.4396C17.5932 11.8169 17.991 12.2647 18.3985 12.673L20.836 15.1134L27.4825 21.7589C28.6845 22.9607 29.9459 24.2708 31.172 25.4298C31.3347 25.2522 31.5839 25.0367 31.7218 24.8565C32.2457 24.1731 33.2416 23.6533 34.0108 24.3849C34.2534 24.6194 34.392 24.941 34.3956 25.2784C34.41 26.0802 33.5656 26.6942 33.0304 27.2296L31.0587 29.2169C31.4381 29.6385 31.8868 30.0629 32.2911 30.4679C32.9938 31.1755 33.7017 31.878 34.4142 32.5753C34.5619 32.4159 34.686 32.2714 34.8624 32.1388C36.0419 31.2548 37.5046 32.4386 36.8165 33.7687C36.6343 34.0906 36.3011 34.3301 36.0685 34.6017C35.6014 35.1467 35.1136 35.5894 34.5899 36.0743C34.172 36.4984 33.7974 36.9812 33.171 36.9972C32.808 37.0063 32.4914 36.913 32.2218 36.6642C31.9699 36.4337 31.8246 36.1099 31.8194 35.7687C31.8051 35.1524 32.1558 34.8239 32.5509 34.4161C31.448 33.2949 30.3383 32.1789 29.2228 31.0704C28.8358 31.3875 28.5582 31.7522 28.2091 32.0948C27.8135 32.4831 27.4155 32.838 27.0245 33.2384C26.6846 33.5634 26.3629 33.965 25.9669 34.2218C25.5038 34.5221 24.8565 34.4455 24.4513 34.0939C24.1993 33.878 24.0475 33.567 24.0323 33.2355C23.982 32.309 24.7866 31.8477 25.4005 31.171C24.3005 29.9883 22.9507 28.7007 21.7921 27.5421L15.1319 20.8819L12.6212 18.3722C12.1997 17.9511 11.7339 17.5145 11.3448 17.0694C11.131 16.8266 11.0277 16.5467 11.0187 16.2218C10.9914 15.2114 11.0157 14.1852 11.0069 13.1759C10.9956 11.8604 11.0296 11.1158 12.5138 11.0274C12.5696 11.0249 12.6259 11.0222 12.6817 11.0206ZM15.3458 13.6114C14.7681 13.6026 14.1822 13.6182 13.6046 13.6163C13.6033 13.9984 13.576 15.4039 13.6427 15.6944C14.1585 16.2924 15.126 17.2026 15.7081 17.7843L24.5772 26.6534C25.4213 27.4975 26.4076 28.5417 27.2726 29.3282C27.6243 28.9764 27.9087 28.6278 28.2452 28.2716C28.5705 27.9706 29.0295 27.5976 29.3009 27.2735C28.4505 26.3433 27.3664 25.3153 26.461 24.4103L21.2501 19.2003L17.6036 15.5538L16.4874 14.4356C16.2732 14.2198 16.0614 13.9948 15.836 13.7921C15.6881 13.6589 15.5438 13.6145 15.3458 13.6114Z"/>
</mask>
<path fill-rule="evenodd" clip-rule="evenodd" d="M12.6817 11.0206C13.3002 11.0036 16.3065 10.9497 16.7159 11.1329C16.8751 11.2042 17.0275 11.3261 17.1583 11.4396C17.5932 11.8169 17.991 12.2647 18.3985 12.673L20.836 15.1134L27.4825 21.7589C28.6845 22.9607 29.9459 24.2708 31.172 25.4298C31.3347 25.2522 31.5839 25.0367 31.7218 24.8565C32.2457 24.1731 33.2416 23.6533 34.0108 24.3849C34.2534 24.6194 34.392 24.941 34.3956 25.2784C34.41 26.0802 33.5656 26.6942 33.0304 27.2296L31.0587 29.2169C31.4381 29.6385 31.8868 30.0629 32.2911 30.4679C32.9938 31.1755 33.7017 31.878 34.4142 32.5753C34.5619 32.4159 34.686 32.2714 34.8624 32.1388C36.0419 31.2548 37.5046 32.4386 36.8165 33.7687C36.6343 34.0906 36.3011 34.3301 36.0685 34.6017C35.6014 35.1467 35.1136 35.5894 34.5899 36.0743C34.172 36.4984 33.7974 36.9812 33.171 36.9972C32.808 37.0063 32.4914 36.913 32.2218 36.6642C31.9699 36.4337 31.8246 36.1099 31.8194 35.7687C31.8051 35.1524 32.1558 34.8239 32.5509 34.4161C31.448 33.2949 30.3383 32.1789 29.2228 31.0704C28.8358 31.3875 28.5582 31.7522 28.2091 32.0948C27.8135 32.4831 27.4155 32.838 27.0245 33.2384C26.6846 33.5634 26.3629 33.965 25.9669 34.2218C25.5038 34.5221 24.8565 34.4455 24.4513 34.0939C24.1993 33.878 24.0475 33.567 24.0323 33.2355C23.982 32.309 24.7866 31.8477 25.4005 31.171C24.3005 29.9883 22.9507 28.7007 21.7921 27.5421L15.1319 20.8819L12.6212 18.3722C12.1997 17.9511 11.7339 17.5145 11.3448 17.0694C11.131 16.8266 11.0277 16.5467 11.0187 16.2218C10.9914 15.2114 11.0157 14.1852 11.0069 13.1759C10.9956 11.8604 11.0296 11.1158 12.5138 11.0274C12.5696 11.0249 12.6259 11.0222 12.6817 11.0206ZM15.3458 13.6114C14.7681 13.6026 14.1822 13.6182 13.6046 13.6163C13.6033 13.9984 13.576 15.4039 13.6427 15.6944C14.1585 16.2924 15.126 17.2026 15.7081 17.7843L24.5772 26.6534C25.4213 27.4975 26.4076 28.5417 27.2726 29.3282C27.6243 28.9764 27.9087 28.6278 28.2452 28.2716C28.5705 27.9706 29.0295 27.5976 29.3009 27.2735C28.4505 26.3433 27.3664 25.3153 26.461 24.4103L21.2501 19.2003L17.6036 15.5538L16.4874 14.4356C16.2732 14.2198 16.0614 13.9948 15.836 13.7921C15.6881 13.6589 15.5438 13.6145 15.3458 13.6114Z" fill="#E0E561"/>
<path d="M12.6817 11.0206L12.6542 10.021L12.6527 10.021L12.6817 11.0206ZM16.7159 11.1329L17.1245 10.2202L17.1243 10.2201L16.7159 11.1329ZM17.1583 11.4396L17.8136 10.6842L17.8135 10.6841L17.1583 11.4396ZM18.3985 12.673L17.6909 13.3795L17.691 13.3796L18.3985 12.673ZM20.836 15.1134L20.1285 15.8201L20.129 15.8205L20.836 15.1134ZM27.4825 21.7589L28.1896 21.0517L28.1896 21.0517L27.4825 21.7589ZM31.172 25.4298L30.485 26.1565L31.223 26.8541L31.9092 26.1055L31.172 25.4298ZM31.7218 24.8565L30.9281 24.2481L30.9276 24.2488L31.7218 24.8565ZM34.0108 24.3849L34.706 23.6659L34.7 23.6602L34.0108 24.3849ZM34.3956 25.2784L33.3956 25.2892L33.3958 25.2963L34.3956 25.2784ZM33.0304 27.2296L32.3231 26.5226L32.3205 26.5253L33.0304 27.2296ZM31.0587 29.2169L30.3488 28.5126L29.6832 29.1835L30.3154 29.8859L31.0587 29.2169ZM32.2911 30.4679L33.0007 29.7632L32.9988 29.7613L32.2911 30.4679ZM34.4142 32.5753L33.7147 33.29L34.449 34.0087L35.1476 33.2551L34.4142 32.5753ZM34.8624 32.1388L34.2627 31.3386L34.2615 31.3394L34.8624 32.1388ZM36.8165 33.7687L37.6868 34.2612L37.696 34.2449L37.7047 34.2282L36.8165 33.7687ZM36.0685 34.6017L36.8278 35.2524L36.8279 35.2523L36.0685 34.6017ZM34.5899 36.0743L33.9105 35.3406L33.8937 35.3561L33.8776 35.3725L34.5899 36.0743ZM33.171 36.9972L33.1961 37.9969L33.1965 37.9969L33.171 36.9972ZM32.2218 36.6642L32.8999 35.9292L32.8969 35.9264L32.2218 36.6642ZM31.8194 35.7687L32.8194 35.7536L32.8192 35.7454L31.8194 35.7687ZM32.5509 34.4161L33.2691 35.1119L33.9483 34.4108L33.2638 33.7149L32.5509 34.4161ZM29.2228 31.0704L29.9276 30.3611L29.2872 29.7247L28.5889 30.2969L29.2228 31.0704ZM28.2091 32.0948L27.5086 31.3811L27.5086 31.3811L28.2091 32.0948ZM27.0245 33.2384L27.7156 33.9612L27.728 33.9493L27.74 33.937L27.0245 33.2384ZM25.9669 34.2218L25.4229 33.3827L25.4228 33.3828L25.9669 34.2218ZM24.4513 34.0939L25.1068 33.3386L25.1019 33.3344L24.4513 34.0939ZM24.0323 33.2355L25.0313 33.1898L25.0309 33.1813L24.0323 33.2355ZM25.4005 31.171L26.1411 31.8429L26.7583 31.1626L26.1327 30.4899L25.4005 31.171ZM21.7921 27.5421L22.4992 26.835L22.4992 26.835L21.7921 27.5421ZM15.1319 20.8819L15.8391 20.1748L15.8389 20.1747L15.1319 20.8819ZM12.6212 18.3722L13.3282 17.6649L13.328 17.6648L12.6212 18.3722ZM11.3448 17.0694L12.0977 16.4113L12.0954 16.4087L11.3448 17.0694ZM11.0187 16.2218L10.019 16.2488L10.019 16.2496L11.0187 16.2218ZM11.0069 13.1759L10.007 13.1845L10.007 13.1845L11.0069 13.1759ZM12.5138 11.0274L12.4678 10.0284L12.4543 10.0292L12.5138 11.0274ZM15.3458 13.6114L15.3613 12.6115L15.3611 12.6115L15.3458 13.6114ZM13.6046 13.6163L13.6079 12.6163L12.6079 12.613L12.6046 13.613L13.6046 13.6163ZM13.6427 15.6944L12.668 15.9182L12.7235 16.1599L12.8855 16.3477L13.6427 15.6944ZM15.7081 17.7843L16.4152 17.0772L16.415 17.077L15.7081 17.7843ZM24.5772 26.6534L25.2844 25.9463L25.2844 25.9463L24.5772 26.6534ZM27.2726 29.3282L26.5998 30.0681L27.3054 30.7097L27.9797 30.0353L27.2726 29.3282ZM28.2452 28.2716L27.5661 27.5376L27.5414 27.5604L27.5183 27.5848L28.2452 28.2716ZM29.3009 27.2735L30.0675 27.9156L30.6294 27.2447L30.0389 26.5988L29.3009 27.2735ZM26.461 24.4103L25.754 25.1174L25.754 25.1175L26.461 24.4103ZM21.2501 19.2003L20.543 19.9074L20.543 19.9075L21.2501 19.2003ZM17.6036 15.5538L16.8959 16.2603L16.8965 16.2609L17.6036 15.5538ZM16.4874 14.4356L15.7776 15.1401L15.7797 15.1421L16.4874 14.4356ZM15.836 13.7921L15.1671 14.5354L15.1672 14.5355L15.836 13.7921ZM12.6817 11.0206L12.7093 12.0202C13.0103 12.0119 13.904 11.9945 14.7689 12.0016C15.2026 12.0052 15.6169 12.015 15.9413 12.034C16.1046 12.0435 16.2316 12.0547 16.3207 12.0664C16.4479 12.083 16.4052 12.0894 16.3075 12.0457L16.7159 11.1329L17.1243 10.2201C16.9243 10.1306 16.6981 10.0986 16.58 10.0832C16.424 10.0628 16.2441 10.0483 16.0583 10.0374C15.6846 10.0155 15.2318 10.0054 14.7855 10.0017C13.8903 9.99425 12.9717 10.0122 12.6542 10.021L12.6817 11.0206ZM16.7159 11.1329L16.3073 12.0457C16.3052 12.0447 16.323 12.0528 16.3631 12.0817C16.4022 12.1099 16.4472 12.1465 16.5031 12.195L17.1583 11.4396L17.8135 10.6841C17.6774 10.566 17.4295 10.3567 17.1245 10.2202L16.7159 11.1329ZM17.1583 11.4396L16.503 12.1949C16.904 12.5428 17.2244 12.9124 17.6909 13.3795L18.3985 12.673L19.1062 11.9664C18.7575 11.6171 18.2825 11.0909 17.8136 10.6842L17.1583 11.4396ZM18.3985 12.673L17.691 13.3796L20.1285 15.8201L20.836 15.1134L21.5436 14.4067L19.1061 11.9663L18.3985 12.673ZM20.836 15.1134L20.129 15.8205L26.7755 22.4661L27.4825 21.7589L28.1896 21.0517L21.5431 14.4062L20.836 15.1134ZM27.4825 21.7589L26.7755 22.4661C27.958 23.6484 29.2457 24.985 30.485 26.1565L31.172 25.4298L31.8589 24.7031C30.6461 23.5567 29.4109 22.2729 28.1896 21.0517L27.4825 21.7589ZM31.172 25.4298L31.9092 26.1055C31.9681 26.0411 32.0392 25.9738 32.1588 25.8558C32.256 25.7598 32.3995 25.6164 32.5159 25.4643L31.7218 24.8565L30.9276 24.2488C30.9062 24.2768 30.8562 24.3313 30.7537 24.4325C30.6735 24.5116 30.5386 24.6408 30.4348 24.7541L31.172 25.4298ZM31.7218 24.8565L32.5154 25.4649C32.6817 25.2481 32.8981 25.0973 33.0633 25.0474C33.136 25.0255 33.1784 25.0287 33.1994 25.033C33.2149 25.0362 33.2557 25.0468 33.3217 25.1095L34.0108 24.3849L34.7 23.6602C34.023 23.0164 33.1959 22.9182 32.4853 23.1327C31.8292 23.3308 31.2858 23.7816 30.9281 24.2481L31.7218 24.8565ZM34.0108 24.3849L33.3157 25.1038C33.3662 25.1526 33.3949 25.2193 33.3957 25.2892L34.3956 25.2784L35.3956 25.2676C35.389 24.6627 35.1405 24.0861 34.706 23.666L34.0108 24.3849ZM34.3956 25.2784L33.3958 25.2963C33.3963 25.328 33.3821 25.445 33.1614 25.7013C33.0581 25.8211 32.9335 25.9445 32.7855 26.084C32.6521 26.2098 32.4706 26.3751 32.3231 26.5226L33.0304 27.2296L33.7376 27.9366C33.9033 27.7708 34.3785 27.3527 34.6767 27.0066C35.0084 26.6215 35.4092 26.0306 35.3955 25.2605L34.3956 25.2784ZM33.0304 27.2296L32.3205 26.5253L30.3488 28.5126L31.0587 29.2169L31.7686 29.9212L33.7403 27.9339L33.0304 27.2296ZM31.0587 29.2169L30.3154 29.8859C30.7178 30.333 31.2082 30.7986 31.5835 31.1744L32.2911 30.4679L32.9988 29.7613C32.5653 29.3271 32.1584 28.9439 31.802 28.5479L31.0587 29.2169ZM32.2911 30.4679L31.5816 31.1725C32.2877 31.8836 32.9989 32.5894 33.7147 33.29L34.4142 32.5753L35.1136 31.8606C34.4045 31.1666 33.7 30.4674 33.0007 29.7632L32.2911 30.4679ZM34.4142 32.5753L35.1476 33.2551C35.3261 33.0625 35.3769 33.0031 35.4633 32.9381L34.8624 32.1388L34.2615 31.3394C33.9952 31.5397 33.7977 31.7693 33.6808 31.8955L34.4142 32.5753ZM34.8624 32.1388L35.4621 32.939C35.5858 32.8463 35.68 32.8317 35.7366 32.8332C35.8 32.8348 35.8584 32.8577 35.9041 32.8954C35.9495 32.9328 35.9775 32.9802 35.9881 33.0311C35.9972 33.0753 36.0024 33.1659 35.9283 33.3091L36.8165 33.7687L37.7047 34.2282C38.2668 33.1418 37.9642 32.0009 37.1755 31.3515C36.3958 30.7094 35.225 30.6173 34.2627 31.3386L34.8624 32.1388ZM36.8165 33.7687L35.9462 33.2761C35.926 33.3118 35.8795 33.3727 35.7571 33.4941C35.669 33.5815 35.4603 33.7745 35.309 33.951L36.0685 34.6017L36.8279 35.2523C36.9092 35.1573 36.9834 35.0948 37.1656 34.914C37.3136 34.7672 37.5248 34.5474 37.6868 34.2612L36.8165 33.7687ZM36.0685 34.6017L35.3091 33.951C34.8873 34.4432 34.4466 34.8441 33.9105 35.3406L34.5899 36.0743L35.2694 36.808C35.7806 36.3346 36.3155 35.8503 36.8278 35.2524L36.0685 34.6017ZM34.5899 36.0743L33.8776 35.3725C33.8192 35.4317 33.7624 35.4911 33.7119 35.544C33.6596 35.5987 33.6135 35.6469 33.5679 35.6931C33.4761 35.7862 33.4049 35.8523 33.3418 35.9017C33.2272 35.9916 33.1788 35.9966 33.1455 35.9975L33.171 36.9972L33.1965 37.9969C33.7896 37.9817 34.2418 37.7374 34.5755 37.4759C34.867 37.2475 35.1527 36.928 35.3023 36.7762L34.5899 36.0743ZM33.171 36.9972L33.1459 35.9975C33.0572 35.9997 33.0072 35.9887 32.9806 35.9797C32.9578 35.972 32.9331 35.9598 32.8999 35.9292L32.2218 36.6642L31.5436 37.3991C32.0399 37.857 32.626 38.0112 33.1961 37.9969L33.171 36.9972ZM32.2218 36.6642L32.8969 35.9264C32.8484 35.8821 32.8203 35.8198 32.8193 35.7536L31.8194 35.7687L30.8195 35.7837C30.8288 36.4 31.0915 36.9853 31.5467 37.4019L32.2218 36.6642ZM31.8194 35.7687L32.8192 35.7454C32.8172 35.6592 32.8328 35.6171 32.8725 35.5555C32.9 35.5128 32.9418 35.4587 33.0104 35.3827C33.083 35.3022 33.1596 35.225 33.2691 35.1119L32.5509 34.4161L31.8327 33.7203C31.4972 34.0665 30.7941 34.6905 30.8197 35.7919L31.8194 35.7687ZM32.5509 34.4161L33.2638 33.7149C32.1584 32.591 31.046 31.4724 29.9276 30.3611L29.2228 31.0704L28.5179 31.7798C29.6306 32.8855 30.7377 33.9987 31.8379 35.1174L32.5509 34.4161ZM29.2228 31.0704L28.5889 30.2969C28.3423 30.4991 28.1395 30.7091 27.9693 30.8922C27.7869 31.0884 27.6614 31.2312 27.5086 31.3811L28.2091 32.0948L28.9095 32.8086C29.1059 32.6158 29.2937 32.405 29.4341 32.2539C29.5867 32.0898 29.7163 31.9589 29.8566 31.8439L29.2228 31.0704ZM28.2091 32.0948L27.5086 31.3811C27.1718 31.7117 26.6957 32.1437 26.309 32.5398L27.0245 33.2384L27.74 33.937C28.1352 33.5323 28.4552 33.2544 28.9096 32.8085L28.2091 32.0948ZM27.0245 33.2384L26.3334 32.5156C26.1627 32.6788 25.9269 32.9308 25.8082 33.05C25.6513 33.2076 25.5311 33.3125 25.4229 33.3827L25.9669 34.2218L26.5109 35.0609C26.7987 34.8743 27.0374 34.65 27.2253 34.4613C27.4515 34.2342 27.5464 34.1229 27.7156 33.9612L27.0245 33.2384ZM25.9669 34.2218L25.4228 33.3828C25.4038 33.3951 25.3572 33.4139 25.2815 33.4067C25.2039 33.3994 25.141 33.3683 25.1068 33.3386L24.4513 34.0939L23.7958 34.8491C24.5061 35.4656 25.6403 35.6255 26.511 35.0608L25.9669 34.2218ZM24.4513 34.0939L25.1019 33.3344C25.0596 33.2982 25.0338 33.2454 25.0313 33.1898L24.0323 33.2355L23.0334 33.2811C23.0611 33.8885 23.3391 34.4578 23.8007 34.8533L24.4513 34.0939ZM24.0323 33.2355L25.0309 33.1813C25.0248 33.0701 25.0482 32.9677 25.2254 32.7617C25.3235 32.6477 25.4442 32.5307 25.6093 32.3739C25.7628 32.2281 25.9576 32.0452 26.1411 31.8429L25.4005 31.171L24.6598 30.4991C24.5364 30.6352 24.4004 30.7637 24.232 30.9237C24.0751 31.0726 23.8828 31.2557 23.7092 31.4574C23.3433 31.8828 22.9895 32.4743 23.0338 33.2896L24.0323 33.2355ZM25.4005 31.171L26.1327 30.4899C25.0167 29.2901 23.6323 27.9681 22.4992 26.835L21.7921 27.5421L21.085 28.2492C22.2691 29.4333 23.5842 30.6865 24.6682 31.8521L25.4005 31.171ZM21.7921 27.5421L22.4992 26.835L15.8391 20.1748L15.1319 20.8819L14.4248 21.5891L21.085 28.2492L21.7921 27.5421ZM15.1319 20.8819L15.8389 20.1747L13.3282 17.6649L12.6212 18.3722L11.9142 19.0794L14.425 21.5892L15.1319 20.8819ZM12.6212 18.3722L13.328 17.6648C12.8739 17.2111 12.4572 16.8225 12.0977 16.4113L11.3448 17.0694L10.5919 17.7276C11.0106 18.2065 11.5255 18.6911 11.9144 19.0796L12.6212 18.3722ZM11.3448 17.0694L12.0954 16.4087C12.0461 16.3526 12.0213 16.301 12.0183 16.1939L11.0187 16.2218L10.019 16.2496C10.0342 16.7925 10.216 17.3005 10.5942 17.7302L11.3448 17.0694ZM11.0187 16.2218L12.0183 16.1948C11.9911 15.1867 12.0161 14.23 12.0069 13.1672L11.0069 13.1759L10.007 13.1845C10.0152 14.1404 9.99167 15.2361 10.019 16.2488L11.0187 16.2218ZM11.0069 13.1759L12.0069 13.1673C12.004 12.8317 12.0053 12.5898 12.0243 12.3939C12.0432 12.1984 12.0738 12.1272 12.0822 12.1116C12.0839 12.1084 12.0808 12.1144 12.0732 12.1217C12.0659 12.1287 12.0667 12.1251 12.0873 12.115C12.1374 12.0907 12.2742 12.0435 12.5732 12.0257L12.5138 11.0274L12.4543 10.0292C11.5641 10.0822 10.7492 10.3598 10.3169 11.1714C10.1326 11.5174 10.0642 11.8845 10.0335 12.2013C10.0029 12.5178 10.0042 12.8623 10.007 13.1845L11.0069 13.1759ZM12.5138 11.0274L12.5598 12.0264C12.618 12.0237 12.6651 12.0215 12.7108 12.0202L12.6817 11.0206L12.6527 10.021C12.5866 10.0229 12.5213 10.026 12.4678 10.0285L12.5138 11.0274ZM15.3458 13.6114L15.3611 12.6115C14.7916 12.6028 14.129 12.618 13.6079 12.6163L13.6046 13.6163L13.6013 14.6163C14.2354 14.6184 14.7446 14.6023 15.3305 14.6113L15.3458 13.6114ZM13.6046 13.6163L12.6046 13.613C12.604 13.7783 12.5968 14.2596 12.5981 14.6928C12.5988 14.915 12.6017 15.1432 12.6091 15.3389C12.6152 15.4996 12.6266 15.7379 12.668 15.9182L13.6427 15.6944L14.6173 15.4707C14.6254 15.5057 14.6152 15.4594 14.6077 15.2629C14.6016 15.1014 14.5988 14.8999 14.5982 14.6866C14.5968 14.249 14.6039 13.8364 14.6046 13.6197L13.6046 13.6163ZM13.6427 15.6944L12.8855 16.3477C13.4332 16.9825 14.464 17.9547 15.0012 18.4916L15.7081 17.7843L16.415 17.077C15.788 16.4504 14.8838 15.6022 14.3998 15.0412L13.6427 15.6944ZM15.7081 17.7843L15.001 18.4914L23.8701 27.3605L24.5772 26.6534L25.2844 25.9463L16.4152 17.0772L15.7081 17.7843ZM24.5772 26.6534L23.8701 27.3605C24.6818 28.1723 25.7119 29.2607 26.5998 30.0681L27.2726 29.3282L27.9454 28.5884C27.1033 27.8227 26.1607 26.8227 25.2844 25.9463L24.5772 26.6534ZM27.2726 29.3282L27.9797 30.0353C28.1762 29.8388 28.3505 29.6465 28.5099 29.4683C28.6737 29.2852 28.816 29.1236 28.9721 28.9583L28.2452 28.2716L27.5183 27.5848C27.3379 27.7758 27.1697 27.9666 27.0193 28.1349C26.8644 28.3079 26.7207 28.4659 26.5654 28.6212L27.2726 29.3282ZM28.2452 28.2716L28.9244 29.0056C29.1651 28.7828 29.7425 28.3037 30.0675 27.9156L29.3009 27.2735L28.5342 26.6315C28.3165 26.8915 27.9758 27.1584 27.5661 27.5376L28.2452 28.2716ZM29.3009 27.2735L30.0389 26.5988C29.1687 25.6468 28.0443 24.579 27.168 23.703L26.461 24.4103L25.754 25.1175C26.6885 26.0517 27.7323 27.0399 28.5628 27.9483L29.3009 27.2735ZM26.461 24.4103L27.1681 23.7031L21.9571 18.4931L21.2501 19.2003L20.543 19.9075L25.754 25.1174L26.461 24.4103ZM21.2501 19.2003L21.9572 18.4932L18.3107 14.8467L17.6036 15.5538L16.8965 16.2609L20.543 19.9074L21.2501 19.2003ZM17.6036 15.5538L18.3113 14.8473L17.1951 13.7291L16.4874 14.4356L15.7797 15.1421L16.8959 16.2603L17.6036 15.5538ZM16.4874 14.4356L17.1972 13.7312C17.0082 13.5408 16.7582 13.2766 16.5049 13.0487L15.836 13.7921L15.1672 14.5355C15.3645 14.713 15.5381 14.8988 15.7776 15.1401L16.4874 14.4356ZM15.836 13.7921L16.505 13.0488C16.1438 12.7237 15.7516 12.6176 15.3613 12.6115L15.3458 13.6114L15.3303 14.6113C15.3593 14.6118 15.3295 14.6146 15.2753 14.5954C15.2485 14.5859 15.2236 14.5738 15.2023 14.5607C15.1816 14.5481 15.1698 14.5379 15.1671 14.5354L15.836 13.7921Z" fill="#E0E561" mask="url(#path-1-inside-1_3_86)"/>
<path d="M34.1726 11.5157C34.7663 11.5108 35.3924 11.4929 35.9011 11.5656C36.0255 11.5833 36.1446 11.641 36.2634 11.7462C36.4066 11.8729 36.5105 12.1363 36.5046 12.4181C36.4971 12.6989 36.5018 12.9696 36.5056 13.2277C36.5095 13.4887 36.5126 13.7383 36.5046 13.9952C36.4906 14.4404 36.5124 14.9424 36.5134 15.3634C36.5145 15.7972 36.4948 16.1962 36.4167 16.5616C36.4149 16.5649 36.4135 16.5691 36.4109 16.5734C36.392 16.6048 36.3633 16.6464 36.3279 16.6935C36.2552 16.7902 36.1787 16.8768 36.1482 16.9073C35.2164 17.838 34.2828 18.7694 33.3513 19.7013C32.7084 20.334 32.1293 20.9914 31.4939 21.4874V21.4884C31.5024 21.4817 31.4984 21.4865 31.4734 21.4972C31.4501 21.5071 31.4181 21.5174 31.3796 21.5275C31.3002 21.5481 31.2198 21.5576 31.1697 21.5587C30.9508 21.56 30.7401 21.4752 30.5847 21.3214V21.3204L30.5359 21.2677C30.431 21.1404 30.3787 20.9798 30.3738 20.755C30.3698 20.5708 30.4707 20.3492 30.7136 20.0665C30.9669 19.7718 31.2383 19.5529 31.532 19.2599L33.2849 17.5089L33.2859 17.5079C33.695 17.0982 34.3804 16.4649 34.783 15.9786L34.8875 15.8517L34.8972 15.6876C34.933 15.0551 34.9093 14.2186 34.908 13.6144L34.907 13.1173L34.4099 13.1154L33.4089 13.1066C33.0293 13.1072 32.6404 13.1172 32.3533 13.1534C32.2258 13.1695 32.1248 13.2263 32.0779 13.254C32.0184 13.2892 31.961 13.3308 31.9109 13.3702C31.8101 13.4496 31.702 13.5482 31.6033 13.6427L31.1296 14.1193L28.9343 16.3185L28.9333 16.3195C28.6454 16.6091 28.3913 16.9125 28.0652 17.2072C27.7798 17.465 27.5499 17.6066 27.3777 17.6486L27.3074 17.6603C27.1059 17.6749 26.9069 17.6095 26.7537 17.4777L26.7517 17.4757L26.6794 17.4083C26.5257 17.2484 26.4659 17.0697 26.4666 16.8966C26.4675 16.6899 26.5564 16.4545 26.7517 16.2452C27.0073 15.9714 27.2692 15.7173 27.5496 15.4396L27.5505 15.4386L29.0037 13.9943L29.0046 13.9923L30.3738 12.6173L30.3748 12.6163C30.7382 12.2487 31.0798 11.8682 31.4148 11.6359C31.4487 11.6125 31.5161 11.5845 31.6384 11.5636C31.7581 11.5431 31.883 11.5353 32.032 11.5255L32.033 11.5265C32.718 11.4985 33.4404 11.5218 34.1726 11.5157Z" fill="#E0E561" stroke="#E0E561" stroke-width="1.00001"/>
<path d="M14.8281 25.8485C15.0078 25.835 15.1279 25.8591 15.2275 25.9022C15.3371 25.9497 15.4569 26.0348 15.6152 26.1913C15.9799 26.5517 16.3326 26.9123 16.7012 27.2811L18.9561 29.536V29.537L20.0234 30.6005L20.0264 30.6034C20.3229 30.8946 20.5476 31.0827 20.7383 31.3407C21.1257 31.8648 20.7473 32.6137 20.1025 32.6171C19.9175 32.6179 19.6817 32.5029 19.377 32.2333C19.2328 32.1058 19.0907 31.9606 18.9482 31.8085C18.8125 31.6635 18.6641 31.4992 18.5312 31.3661L18.208 31.0419L17.8574 31.3348C17.4864 31.6441 17.0761 32.0738 16.7656 32.3846L16.7637 32.3856L15.1006 34.0653L14.7461 34.4227L15.1055 34.7743C15.4388 35.1002 15.6113 35.3211 15.6758 35.5194C15.7242 35.6683 15.7298 35.8666 15.5342 36.2089L15.4854 36.2655C15.1972 36.5743 14.6493 36.5824 14.333 36.2655C13.8976 35.8291 13.331 35.3135 12.8506 34.8446C12.3475 34.3537 11.8892 33.8693 11.5615 33.4061C11.4801 33.291 11.4572 33.0273 11.6367 32.7245C11.8111 32.4305 12.0583 32.3039 12.2529 32.3251C12.5236 32.3545 12.663 32.4098 12.7754 32.4813C12.9102 32.5671 13.0336 32.6897 13.2734 32.9296L13.6406 33.2977L13.9941 32.9159C14.4065 32.4702 14.8589 32.0301 15.3213 31.578C15.7797 31.1298 16.248 30.6696 16.6729 30.1991L16.9863 29.8524L16.6602 29.5165C16.4161 29.2649 16.1704 29.0147 15.9229 28.7665L15.1748 28.0262C14.7806 27.6359 14.4357 27.345 14.2373 27.0038C14.1483 26.8507 14.1095 26.7171 14.1113 26.5907C14.1131 26.4668 14.1546 26.303 14.3027 26.0878C14.3798 25.9759 14.5473 25.8859 14.8281 25.8485Z" fill="#E0E561" stroke="#E0E561" stroke-width="1.00001"/>
</svg>
