<svg width="48" height="48" viewBox="0 0 48 48" fill="none" xmlns="http://www.w3.org/2000/svg">
<path d="M36.3333 32.1255V23.3413C36.3333 22.4953 36.3326 22.072 36.2297 21.6783C36.1386 21.3295 35.9889 20.9993 35.7864 20.701C35.5579 20.3643 35.2401 20.0851 34.6034 19.528L27.0034 12.878C25.8213 11.8436 25.2302 11.3267 24.565 11.13C23.9789 10.9567 23.3541 10.9567 22.768 11.13C22.1033 11.3266 21.5131 11.843 20.3327 12.8758L12.7302 19.528C12.0935 20.0851 11.7759 20.3643 11.5474 20.701C11.3448 20.9993 11.194 21.3295 11.1029 21.6783C11 22.072 11 22.4953 11 23.3413V32.1255C11 33.601 11 34.3385 11.241 34.9204C11.5624 35.6963 12.1785 36.3136 12.9544 36.635C13.5364 36.876 14.2741 36.876 15.7496 36.876C17.2251 36.876 17.9636 36.876 18.5456 36.635C19.3215 36.3136 19.9374 35.6965 20.2588 34.9206C20.4998 34.3386 20.5 33.6009 20.5 32.1254V30.5421C20.5 28.7932 21.9178 27.3754 23.6667 27.3754C25.4156 27.3754 26.8333 28.7932 26.8333 30.5421V32.1254C26.8333 33.6009 26.8333 34.3386 27.0744 34.9206C27.3958 35.6965 28.0118 36.3136 28.7878 36.635C29.3697 36.876 30.1074 36.876 31.5829 36.876C33.0584 36.876 33.797 36.876 34.3789 36.635C35.1548 36.3136 35.7707 35.6963 36.0921 34.9204C36.3332 34.3385 36.3333 33.601 36.3333 32.1255Z" stroke="#E0E561" stroke-width="2" stroke-linecap="round" stroke-linejoin="round"/>
</svg>
