<svg width="48" height="48" viewBox="0 0 48 48" fill="none" xmlns="http://www.w3.org/2000/svg">
<path d="M34.5 35.5C26.9 39.9 21.6667 34.3333 20 31C28.8 29.8 29.6667 21.5 29 17.5C41 19.5 39.6667 28.3333 37.5 32.5L38.5 36.5L34.5 35.5Z" fill="#E0E561" stroke="black"/>
<path d="M13.6502 28.9883C15.1974 29.9453 17.0325 30.4995 19.0004 30.4995C19.1895 30.4995 19.3774 30.4944 19.5639 30.4843C24.8248 30.1994 29.0006 25.9503 29.0006 20.7499C29.0006 15.3652 24.5233 11 19.0003 11C13.4773 11 9 15.3652 9 20.7499C9 22.6685 9.56825 24.4576 10.5499 25.966L9.84312 28.0332L9.842 28.0362C9.57131 28.8279 9.43591 29.224 9.53232 29.4876C9.61634 29.7173 9.80283 29.8984 10.0384 29.9803C10.3079 30.074 10.7113 29.9429 11.5179 29.6807L11.5294 29.6773L13.6502 28.9883Z" fill="#E0E561"/>
<path d="M19.5639 30.4843C24.8248 30.1994 29.0006 25.9503 29.0006 20.7499C29.0006 15.3652 24.5233 11 19.0003 11C13.4773 11 9 15.3652 9 20.7499C9 22.6685 9.56825 24.4576 10.5499 25.966L9.84312 28.0332L9.842 28.0362C9.57131 28.8279 9.43591 29.224 9.53232 29.4876C9.61634 29.7173 9.80283 29.8984 10.0384 29.9803C10.3079 30.074 10.7113 29.9429 11.5179 29.6807L11.5294 29.6773L13.6502 28.9883C15.1974 29.9453 17.0325 30.4995 19.0004 30.4995C19.1895 30.4995 19.3774 30.4944 19.5639 30.4843ZM19.5639 30.4843V30.4843ZM19.5639 30.4843C20.9321 34.2794 24.6406 37 29.0008 37C30.9687 37 32.8035 36.4453 34.3505 35.4882L36.4709 36.1773L36.475 36.1781C37.287 36.442 37.6939 36.5742 37.9643 36.4802C38.1999 36.3983 38.384 36.2172 38.468 35.9875C38.5646 35.7235 38.4295 35.327 38.1581 34.5331L37.4514 32.466L37.6881 32.0835C38.5239 30.659 39 29.0086 39 27.2498C39 21.8651 34.5236 17.4999 29.0006 17.4999L28.6262 17.5067L28.4374 17.5157" stroke="#1F201A" stroke-width="2" stroke-linecap="round" stroke-linejoin="round"/>
</svg>
