<svg width="48" height="48" viewBox="0 0 48 48" fill="none" xmlns="http://www.w3.org/2000/svg">
<path d="M11 24H18.2222M11 24C11 31.1797 16.8203 37 24 37M11 24C11 16.8203 16.8203 11 24 11M18.2222 24H29.7778M18.2222 24C18.2222 31.1797 20.809 37 24 37M18.2222 24C18.2222 16.8203 20.809 11 24 11M29.7778 24H37M29.7778 24C29.7778 16.8203 27.191 11 24 11M29.7778 24C29.7778 31.1797 27.191 37 24 37M37 24C37 16.8203 31.1797 11 24 11M37 24C37 31.1797 31.1797 37 24 37" stroke="#E0E561" stroke-width="2" stroke-linecap="round" stroke-linejoin="round"/>
</svg>
