<svg width="48" height="48" viewBox="0 0 48 48" fill="none" xmlns="http://www.w3.org/2000/svg">
<mask id="path-1-inside-1_3_101" fill="white">
<path fill-rule="evenodd" clip-rule="evenodd" d="M12.6813 11.0207C13.2988 11.0036 16.3055 10.9498 16.7155 11.133C16.8746 11.2042 17.027 11.3261 17.1579 11.4396C17.5928 11.8169 17.9905 12.2648 18.3981 12.673L20.8366 15.1134L27.4821 21.7589C28.684 22.9607 29.9464 24.2709 31.1725 25.4298C31.3353 25.2523 31.5835 25.0367 31.7213 24.8566C32.2452 24.1731 33.242 23.6532 34.0114 24.3849C34.2537 24.6194 34.3925 24.9412 34.3961 25.2785C34.4105 26.0803 33.5651 26.6942 33.0299 27.2296L31.0583 29.2169C31.4377 29.6385 31.8863 30.0629 32.2907 30.4679C32.9934 31.1756 33.7012 31.878 34.4137 32.5753C34.5616 32.4158 34.6864 32.2715 34.8629 32.1388C36.0423 31.255 37.5049 32.4388 36.817 33.7687C36.6348 34.0907 36.3007 34.3301 36.068 34.6017C35.6008 35.1469 35.1133 35.5893 34.5895 36.0744C34.1716 36.4985 33.7979 36.9802 33.1715 36.9962C32.8083 37.0055 32.4911 36.9131 32.2213 36.6642C31.9696 36.4337 31.8241 36.1098 31.819 35.7687C31.8047 35.1523 32.1563 34.824 32.5514 34.4162C31.4486 33.2949 30.3389 32.179 29.2233 31.0705C28.8363 31.3876 28.5587 31.7523 28.2096 32.0949C27.8139 32.4833 27.4152 32.8379 27.0241 33.2384C26.6842 33.5634 26.3625 33.9651 25.9665 34.2218C25.5033 34.522 24.8559 34.4457 24.4508 34.0939C24.1989 33.878 24.048 33.567 24.0329 33.2355C23.9825 32.309 24.7861 31.8478 25.4 31.171C24.3 29.9883 22.9503 28.7008 21.7916 27.5421L15.1315 20.882L12.6208 18.3722C12.1994 17.9512 11.7343 17.5145 11.3454 17.0695C11.1315 16.8266 11.0273 16.5468 11.0182 16.2218C10.9909 15.2115 11.0162 14.1852 11.0075 13.1759C10.9961 11.8605 11.0296 11.116 12.5133 11.0275C12.5692 11.0249 12.6254 11.0223 12.6813 11.0207ZM15.3454 13.6115C14.7677 13.6026 14.1817 13.6183 13.6041 13.6164C13.6029 13.9986 13.5765 15.4042 13.6432 15.6945C14.159 16.2923 15.1256 17.2017 15.7077 17.7834L19.6168 21.6925L24.5768 26.6535C25.4209 27.4976 26.4081 28.5417 27.2731 29.3283C27.6249 28.9764 27.9091 28.6279 28.2458 28.2716C28.5709 27.9708 29.029 27.5976 29.3004 27.2736C28.45 26.3434 27.366 25.3154 26.4606 24.4103L21.2497 19.2003L17.6041 15.5539L16.4879 14.4357C16.2738 14.2199 16.0618 13.9948 15.8366 13.7921C15.6886 13.6589 15.5435 13.6145 15.3454 13.6115Z"/>
</mask>
<path fill-rule="evenodd" clip-rule="evenodd" d="M12.6813 11.0207C13.2988 11.0036 16.3055 10.9498 16.7155 11.133C16.8746 11.2042 17.027 11.3261 17.1579 11.4396C17.5928 11.8169 17.9905 12.2648 18.3981 12.673L20.8366 15.1134L27.4821 21.7589C28.684 22.9607 29.9464 24.2709 31.1725 25.4298C31.3353 25.2523 31.5835 25.0367 31.7213 24.8566C32.2452 24.1731 33.242 23.6532 34.0114 24.3849C34.2537 24.6194 34.3925 24.9412 34.3961 25.2785C34.4105 26.0803 33.5651 26.6942 33.0299 27.2296L31.0583 29.2169C31.4377 29.6385 31.8863 30.0629 32.2907 30.4679C32.9934 31.1756 33.7012 31.878 34.4137 32.5753C34.5616 32.4158 34.6864 32.2715 34.8629 32.1388C36.0423 31.255 37.5049 32.4388 36.817 33.7687C36.6348 34.0907 36.3007 34.3301 36.068 34.6017C35.6008 35.1469 35.1133 35.5893 34.5895 36.0744C34.1716 36.4985 33.7979 36.9802 33.1715 36.9962C32.8083 37.0055 32.4911 36.9131 32.2213 36.6642C31.9696 36.4337 31.8241 36.1098 31.819 35.7687C31.8047 35.1523 32.1563 34.824 32.5514 34.4162C31.4486 33.2949 30.3389 32.179 29.2233 31.0705C28.8363 31.3876 28.5587 31.7523 28.2096 32.0949C27.8139 32.4833 27.4152 32.8379 27.0241 33.2384C26.6842 33.5634 26.3625 33.9651 25.9665 34.2218C25.5033 34.522 24.8559 34.4457 24.4508 34.0939C24.1989 33.878 24.048 33.567 24.0329 33.2355C23.9825 32.309 24.7861 31.8478 25.4 31.171C24.3 29.9883 22.9503 28.7008 21.7916 27.5421L15.1315 20.882L12.6208 18.3722C12.1994 17.9512 11.7343 17.5145 11.3454 17.0695C11.1315 16.8266 11.0273 16.5468 11.0182 16.2218C10.9909 15.2115 11.0162 14.1852 11.0075 13.1759C10.9961 11.8605 11.0296 11.116 12.5133 11.0275C12.5692 11.0249 12.6254 11.0223 12.6813 11.0207ZM15.3454 13.6115C14.7677 13.6026 14.1817 13.6183 13.6041 13.6164C13.6029 13.9986 13.5765 15.4042 13.6432 15.6945C14.159 16.2923 15.1256 17.2017 15.7077 17.7834L19.6168 21.6925L24.5768 26.6535C25.4209 27.4976 26.4081 28.5417 27.2731 29.3283C27.6249 28.9764 27.9091 28.6279 28.2458 28.2716C28.5709 27.9708 29.029 27.5976 29.3004 27.2736C28.45 26.3434 27.366 25.3154 26.4606 24.4103L21.2497 19.2003L17.6041 15.5539L16.4879 14.4357C16.2738 14.2199 16.0618 13.9948 15.8366 13.7921C15.6886 13.6589 15.5435 13.6145 15.3454 13.6115Z" fill="#E0E561"/>
<path fill-rule="evenodd" clip-rule="evenodd" d="M12.6813 11.0207L12.6537 10.021L12.6522 10.0211L12.6813 11.0207ZM16.7155 11.133L17.1238 10.2201L17.1234 10.2199L16.7155 11.133ZM17.1579 11.4396L17.8132 10.6842L17.8131 10.6841L17.1579 11.4396ZM18.3981 12.673L17.6904 13.3796L17.6907 13.3798L18.3981 12.673ZM20.8366 15.1134L20.1292 15.8203L20.1295 15.8205L20.8366 15.1134ZM27.4821 21.7589L26.775 22.4661L26.775 22.4661L27.4821 21.7589ZM31.1725 25.4298L30.4856 26.1566L31.2235 26.8541L31.9097 26.1055L31.1725 25.4298ZM31.7213 24.8566L30.9276 24.2483L30.9272 24.2488L31.7213 24.8566ZM34.0114 24.3849L34.7068 23.6662L34.7005 23.6603L34.0114 24.3849ZM34.3961 25.2785L33.3962 25.2892L33.3963 25.2964L34.3961 25.2785ZM33.0299 27.2296L32.3226 26.5227L32.32 26.5253L33.0299 27.2296ZM31.0583 29.2169L30.3483 28.5126L29.6827 29.1835L30.315 29.8859L31.0583 29.2169ZM32.2907 30.4679L33.0002 29.7633L32.9983 29.7614L32.2907 30.4679ZM34.4137 32.5753L33.7142 33.29L34.4486 34.0087L35.1471 33.2552L34.4137 32.5753ZM34.8629 32.1388L34.2632 31.3386L34.2621 31.3394L34.8629 32.1388ZM36.817 33.7687L37.6873 34.2613L37.6966 34.2449L37.7053 34.2281L36.817 33.7687ZM36.068 34.6017L36.8274 35.2524L36.8276 35.2522L36.068 34.6017ZM34.5895 36.0744L33.91 35.3406L33.8932 35.3562L33.8772 35.3725L34.5895 36.0744ZM33.1715 36.9962L33.1969 37.9959L33.1971 37.9959L33.1715 36.9962ZM32.2213 36.6642L32.8995 35.9293L32.8966 35.9266L32.2213 36.6642ZM31.819 35.7687L32.8189 35.7536L32.8187 35.7455L31.819 35.7687ZM32.5514 34.4162L33.2696 35.112L33.9489 34.4109L33.2644 33.7149L32.5514 34.4162ZM29.2233 31.0705L29.9282 30.3611L29.2878 29.7247L28.5895 30.297L29.2233 31.0705ZM28.2096 32.0949L27.5092 31.3812L27.5091 31.3812L28.2096 32.0949ZM27.0241 33.2384L27.7152 33.9612L27.7276 33.9493L27.7396 33.937L27.0241 33.2384ZM25.9665 34.2218L26.5104 35.061L26.5104 35.0609L25.9665 34.2218ZM24.4508 34.0939L25.1065 33.3388L25.1015 33.3345L24.4508 34.0939ZM24.0329 33.2355L25.0319 33.1899L25.0314 33.1813L24.0329 33.2355ZM25.4 31.171L26.1407 31.843L26.7579 31.1626L26.1323 30.49L25.4 31.171ZM21.7916 27.5421L22.4988 26.835L22.4988 26.835L21.7916 27.5421ZM15.1315 20.882L15.8386 20.1749L15.8385 20.1747L15.1315 20.882ZM12.6208 18.3722L13.3277 17.665L13.3276 17.6648L12.6208 18.3722ZM11.3454 17.0695L12.0983 16.4113L12.0959 16.4086L11.3454 17.0695ZM11.0182 16.2218L10.0186 16.2488L10.0186 16.2497L11.0182 16.2218ZM11.0075 13.1759L10.0075 13.1846L10.0075 13.1846L11.0075 13.1759ZM12.5133 11.0275L12.4673 10.0284L12.4538 10.0293L12.5133 11.0275ZM15.3454 13.6115L15.33 14.6114H15.3301L15.3454 13.6115ZM13.6041 13.6164L13.6074 12.6164L12.6075 12.6131L12.6041 13.613L13.6041 13.6164ZM13.6432 15.6945L12.6686 15.9185L12.7241 16.1601L12.8861 16.3478L13.6432 15.6945ZM15.7077 17.7834L16.4148 17.0762L16.4146 17.076L15.7077 17.7834ZM19.6168 21.6925L20.324 20.9855L20.324 20.9854L19.6168 21.6925ZM24.5768 26.6535L23.8696 27.3605L23.8697 27.3606L24.5768 26.6535ZM27.2731 29.3283L26.6003 30.0681L27.3059 30.7098L27.9803 30.0353L27.2731 29.3283ZM28.2458 28.2716L27.5666 27.5376L27.5419 27.5604L27.5189 27.5849L28.2458 28.2716ZM29.3004 27.2736L30.067 27.9158L30.6291 27.2448L30.0385 26.5988L29.3004 27.2736ZM26.4606 24.4103L25.7535 25.1175L25.7536 25.1175L26.4606 24.4103ZM21.2497 19.2003L20.5424 19.9074L20.5426 19.9075L21.2497 19.2003ZM17.6041 15.5539L16.8964 16.2604L16.8969 16.2609L17.6041 15.5539ZM16.4879 14.4357L15.7782 15.1401L15.7802 15.1422L16.4879 14.4357ZM15.8366 13.7921L15.1676 14.5355L15.1677 14.5355L15.8366 13.7921ZM12.6813 11.0207L12.7089 12.0203C13.0094 12.012 13.903 11.9945 14.7679 12.0017C15.2017 12.0053 15.616 12.015 15.9406 12.034C16.1039 12.0436 16.231 12.0548 16.3202 12.0664C16.4473 12.083 16.4049 12.0895 16.3075 12.046L16.7155 11.133L17.1234 10.2199C16.9236 10.1306 16.6975 10.0987 16.5793 10.0833C16.4232 10.0629 16.2433 10.0483 16.0575 10.0374C15.6837 10.0155 15.2309 10.0055 14.7845 10.0017C13.8893 9.99432 12.9708 10.0123 12.6537 10.021L12.6813 11.0207ZM16.7155 11.133L16.3072 12.0458C16.3048 12.0448 16.3225 12.0528 16.3626 12.0817C16.4017 12.1099 16.4467 12.1465 16.5027 12.1951L17.1579 11.4396L17.8131 10.6841C17.6772 10.5663 17.4291 10.3567 17.1238 10.2201L16.7155 11.133ZM17.1579 11.4396L16.5025 12.195C16.9035 12.5428 17.224 12.9124 17.6904 13.3796L18.3981 12.673L19.1058 11.9664C18.757 11.6172 18.282 11.091 17.8132 10.6842L17.1579 11.4396ZM18.3981 12.673L17.6907 13.3798L20.1292 15.8203L20.8366 15.1134L21.544 14.4066L19.1055 11.9662L18.3981 12.673ZM20.8366 15.1134L20.1295 15.8205L26.775 22.4661L27.4821 21.7589L28.1892 21.0518L21.5437 14.4063L20.8366 15.1134ZM27.4821 21.7589L26.775 22.4661C27.958 23.6489 29.2462 24.985 30.4856 26.1566L31.1725 25.4298L31.8595 24.7031C30.6467 23.5567 29.4101 22.2726 28.1891 21.0518L27.4821 21.7589ZM31.1725 25.4298L31.9097 26.1055C31.9692 26.0406 32.0405 25.9729 32.1597 25.855C32.2569 25.7588 32.3996 25.6158 32.5155 25.4643L31.7213 24.8566L30.9272 24.2488C30.9053 24.2775 30.8549 24.3324 30.7528 24.4334C30.6728 24.5126 30.5386 24.6415 30.4353 24.7541L31.1725 25.4298ZM31.7213 24.8566L32.5151 25.4649C32.6811 25.2482 32.8976 25.0974 33.0631 25.0474C33.136 25.0255 33.1786 25.0286 33.1997 25.033C33.2154 25.0363 33.2563 25.0468 33.3222 25.1095L34.0114 24.3849L34.7005 23.6603C34.0234 23.0163 33.196 22.9183 32.4855 23.1326C31.8292 23.3306 31.2854 23.7814 30.9276 24.2483L31.7213 24.8566ZM34.0114 24.3849L33.316 25.1036C33.3668 25.1527 33.3954 25.2198 33.3962 25.2892L34.3961 25.2785L35.3961 25.2677C35.3896 24.6627 35.1407 24.0861 34.7067 23.6662L34.0114 24.3849ZM34.3961 25.2785L33.3963 25.2964C33.3968 25.3277 33.3828 25.4446 33.1617 25.701C33.0584 25.8209 32.9336 25.9442 32.7854 26.0838C32.6518 26.2097 32.4703 26.375 32.3227 26.5227L33.0299 27.2296L33.7372 27.9366C33.8572 27.8166 33.982 27.7043 34.157 27.5395C34.3174 27.3883 34.5034 27.2077 34.6765 27.007C35.0083 26.6221 35.4098 26.0311 35.396 25.2606L34.3961 25.2785ZM33.0299 27.2296L32.32 26.5253L30.3483 28.5126L31.0583 29.2169L31.7682 29.9213L33.7398 27.934L33.0299 27.2296ZM31.0583 29.2169L30.315 29.8859C30.7174 30.3331 31.2078 30.7987 31.583 31.1745L32.2907 30.4679L32.9983 29.7614C32.5648 29.3272 32.158 28.944 31.8015 28.548L31.0583 29.2169ZM32.2907 30.4679L31.5811 31.1726C32.2873 31.8837 32.9984 32.5894 33.7142 33.29L34.4137 32.5753L35.1132 31.8607C34.404 31.1666 33.6996 30.4675 33.0002 29.7633L32.2907 30.4679ZM34.4137 32.5753L35.1471 33.2552C35.3234 33.065 35.3766 33.0038 35.4637 32.9382L34.8629 32.1388L34.2621 31.3394C33.9961 31.5393 33.7998 31.7667 33.6803 31.8955L34.4137 32.5753ZM34.8629 32.1388L35.4626 32.9391C35.5862 32.8465 35.6804 32.8318 35.737 32.8333C35.8004 32.8349 35.8588 32.8579 35.9045 32.8955C35.9499 32.9329 35.978 32.9804 35.9885 33.0313C35.9976 33.0755 36.0029 33.1661 35.9288 33.3093L36.817 33.7687L37.7053 34.2281C38.2672 33.1418 37.9645 32.001 37.1759 31.3516C36.3963 30.7096 35.2256 30.6174 34.2632 31.3386L34.8629 32.1388ZM36.817 33.7687L35.9468 33.2761C35.9268 33.3114 35.8805 33.372 35.7578 33.4935C35.6695 33.5809 35.4603 33.774 35.3085 33.9512L36.068 34.6017L36.8276 35.2522C36.9084 35.1578 36.9825 35.0954 37.165 34.9147C37.3131 34.7681 37.525 34.548 37.6873 34.2613L36.817 33.7687ZM36.068 34.6017L35.3087 33.951C34.8867 34.4434 34.4463 34.8441 33.91 35.3406L34.5895 36.0744L35.269 36.8081C35.7803 36.3346 36.3149 35.8504 36.8274 35.2524L36.068 34.6017ZM34.5895 36.0744L33.8772 35.3725C33.8188 35.4318 33.762 35.4912 33.7115 35.544C33.6592 35.5987 33.6132 35.6468 33.5677 35.693C33.476 35.786 33.4049 35.8518 33.342 35.9011C33.2279 35.9905 33.1797 35.9957 33.146 35.9966L33.1715 36.9962L33.1971 37.9959C33.7898 37.9808 34.2416 37.737 34.5754 37.4755C34.8668 37.2473 35.1523 36.928 35.3018 36.7762L34.5895 36.0744ZM33.1715 36.9962L33.1462 35.9966C33.0564 35.9988 33.0058 35.9877 32.9789 35.9787C32.956 35.9711 32.9318 35.9591 32.8995 35.9293L32.2213 36.6642L31.5432 37.3992C32.0413 37.8587 32.6291 38.0103 33.1969 37.9959L33.1715 36.9962ZM32.2213 36.6642L32.8966 35.9266C32.848 35.8821 32.8199 35.8196 32.8189 35.7536L31.819 35.7687L30.8191 35.7838C30.8284 36.4001 31.0913 36.9854 31.546 37.4018L32.2213 36.6642ZM31.819 35.7687L32.8187 35.7455C32.8167 35.6597 32.8322 35.618 32.872 35.5562C32.8996 35.5135 32.9416 35.4593 33.0104 35.3832C33.0833 35.3025 33.1598 35.2254 33.2696 35.112L32.5514 34.4162L31.8332 33.7203C31.4989 34.0654 30.7936 34.6898 30.8193 35.792L31.819 35.7687ZM32.5514 34.4162L33.2644 33.7149C32.159 32.5911 31.0465 31.4724 29.9282 30.3611L29.2233 31.0705L28.5184 31.7798C29.6312 32.8855 30.7382 33.9988 31.8385 35.1174L32.5514 34.4162ZM29.2233 31.0705L28.5895 30.297C28.3428 30.4991 28.1401 30.7091 27.9698 30.8923C27.7874 31.0884 27.6619 31.2313 27.5092 31.3812L28.2096 32.0949L28.9101 32.8086C29.1064 32.6159 29.2942 32.4051 29.4347 32.254C29.5872 32.0899 29.7168 31.959 29.8571 31.8439L29.2233 31.0705ZM28.2096 32.0949L27.5091 31.3812C27.1745 31.7097 26.6944 32.1446 26.3085 32.5398L27.0241 33.2384L27.7396 33.937C28.1359 33.5311 28.4534 33.2568 28.9101 32.8086L28.2096 32.0949ZM27.0241 33.2384L26.333 32.5157C26.1623 32.6789 25.9264 32.9309 25.8077 33.0501C25.6508 33.2076 25.5307 33.3126 25.4225 33.3827L25.9665 34.2218L26.5104 35.0609C26.7983 34.8743 27.037 34.6501 27.2249 34.4614C27.4511 34.2343 27.546 34.123 27.7152 33.9612L27.0241 33.2384ZM25.9665 34.2218L25.4225 33.3827C25.4034 33.3951 25.3566 33.4139 25.2809 33.4068C25.2033 33.3994 25.1405 33.3684 25.1065 33.3388L24.4508 34.0939L23.7952 34.849C24.5058 35.466 25.64 35.6251 26.5104 35.061L25.9665 34.2218ZM24.4508 34.0939L25.1015 33.3345C25.0606 33.2995 25.0345 33.2474 25.0318 33.1899L24.0329 33.2355L23.0339 33.2811C23.0615 33.8866 23.3372 34.4566 23.8002 34.8533L24.4508 34.0939ZM24.0329 33.2355L25.0314 33.1813C25.0253 33.0697 25.0489 32.9672 25.2257 32.7614C25.3237 32.6475 25.4442 32.5305 25.6092 32.3737C25.7625 32.228 25.9573 32.0451 26.1407 31.843L25.4 31.171L24.6594 30.4991C24.5359 30.6353 24.3999 30.7639 24.2315 30.9239C24.0747 31.0729 23.8824 31.256 23.709 31.4578C23.3432 31.8834 22.9901 32.4747 23.0343 33.2897L24.0329 33.2355ZM25.4 31.171L26.1323 30.49C25.0162 29.2901 23.6319 27.9682 22.4988 26.835L21.7916 27.5421L21.0845 28.2493C22.2686 29.4334 23.5837 30.6866 24.6678 31.8521L25.4 31.171ZM21.7916 27.5421L22.4988 26.835L15.8386 20.1749L15.1315 20.882L14.4244 21.5891L21.0845 28.2493L21.7916 27.5421ZM15.1315 20.882L15.8385 20.1747L13.3277 17.665L12.6208 18.3722L11.9138 19.0795L14.4245 21.5892L15.1315 20.882ZM12.6208 18.3722L13.3276 17.6648C12.8747 17.2123 12.4576 16.8224 12.0982 16.4113L11.3454 17.0695L10.5925 17.7277C11.0111 18.2065 11.5241 18.6901 11.9139 19.0796L12.6208 18.3722ZM11.3454 17.0695L12.0959 16.4086C12.0452 16.3511 12.0208 16.299 12.0178 16.194L11.0182 16.2218L10.0186 16.2497C10.0338 16.7947 10.2177 17.3021 10.5949 17.7304L11.3454 17.0695ZM11.0182 16.2218L12.0179 16.1948C11.9906 15.1859 12.0166 14.2321 12.0074 13.1673L11.0075 13.1759L10.0075 13.1846C10.0157 14.1383 9.99125 15.237 10.0186 16.2488L11.0182 16.2218ZM11.0075 13.1759L12.0074 13.1673C12.0046 12.8317 12.0058 12.5898 12.0247 12.3938C12.0436 12.1982 12.0743 12.127 12.0826 12.1114C12.0843 12.1082 12.0812 12.1142 12.0735 12.1216C12.0662 12.1286 12.0669 12.125 12.0875 12.115C12.1374 12.0908 12.2739 12.0436 12.5729 12.0257L12.5133 11.0275L12.4538 10.0293C11.5636 10.0824 10.7489 10.3601 10.3169 11.1719C10.1328 11.5179 10.0645 11.8849 10.0339 12.2017C10.0034 12.5181 10.0047 12.8624 10.0075 13.1846L11.0075 13.1759ZM12.5133 11.0275L12.5593 12.0264C12.6175 12.0238 12.6647 12.0216 12.7104 12.0202L12.6813 11.0207L12.6522 10.0211C12.5862 10.023 12.5209 10.0261 12.4673 10.0285L12.5133 11.0275ZM15.3454 13.6115L15.3607 12.6116C14.7912 12.6029 14.1285 12.6181 13.6074 12.6164L13.6041 13.6164L13.6009 14.6164C14.2349 14.6184 14.7442 14.6024 15.33 14.6114L15.3454 13.6115ZM13.6041 13.6164L12.6041 13.613C12.6036 13.7808 12.5966 14.2584 12.5982 14.6936C12.599 14.9158 12.602 15.144 12.6095 15.3396C12.6157 15.5002 12.6272 15.7385 12.6686 15.9185L13.6432 15.6945L14.6178 15.4705C14.6258 15.5054 14.6156 15.459 14.608 15.2625C14.6018 15.101 14.599 14.8995 14.5982 14.6863C14.5966 14.2505 14.6034 13.8342 14.6042 13.6197L13.6041 13.6164ZM13.6432 15.6945L12.8861 16.3478C13.4338 16.9825 14.4636 17.9538 15.0008 18.4907L15.7077 17.7834L16.4146 17.076C15.7877 16.4495 14.8843 15.6021 14.4004 15.0412L13.6432 15.6945ZM15.7077 17.7834L15.0005 18.4905L18.9097 22.3996L19.6168 21.6925L20.324 20.9854L16.4148 17.0762L15.7077 17.7834ZM19.6168 21.6925L18.9097 22.3996L23.8696 27.3605L24.5768 26.6535L25.284 25.9464L20.324 20.9855L19.6168 21.6925ZM24.5768 26.6535L23.8697 27.3606C24.682 28.173 25.7123 29.2606 26.6003 30.0681L27.2731 29.3283L27.9459 28.5884C27.1038 27.8227 26.1598 26.8223 25.284 25.9464L24.5768 26.6535ZM27.2731 29.3283L27.9803 30.0353C28.1768 29.8388 28.351 29.6466 28.5105 29.4683C28.6742 29.2853 28.8164 29.1237 28.9726 28.9584L28.2458 28.2716L27.5189 27.5849C27.3384 27.7758 27.1702 27.9667 27.0198 28.1349C26.865 28.308 26.7212 28.4659 26.5659 28.6212L27.2731 29.3283ZM28.2458 28.2716L28.9249 29.0057C29.1671 28.7816 29.7419 28.3038 30.067 27.9158L29.3004 27.2736L28.5339 26.6314C28.3161 26.8913 27.9748 27.16 27.5666 27.5376L28.2458 28.2716ZM29.3004 27.2736L30.0385 26.5988C29.1682 25.6468 28.0439 24.5791 27.1676 23.7031L26.4606 24.4103L25.7536 25.1175C26.6881 26.0517 27.7318 27.0399 28.5624 27.9483L29.3004 27.2736ZM26.4606 24.4103L27.1676 23.7031L21.9567 18.4932L21.2497 19.2003L20.5426 19.9075L25.7535 25.1175L26.4606 24.4103ZM21.2497 19.2003L21.9569 18.4933L18.3114 14.8468L17.6041 15.5539L16.8969 16.2609L20.5424 19.9074L21.2497 19.2003ZM17.6041 15.5539L18.3119 14.8474L17.1957 13.7292L16.4879 14.4357L15.7802 15.1422L16.8964 16.2604L17.6041 15.5539ZM16.4879 14.4357L17.1977 13.7313C17.0087 13.5408 16.7587 13.2766 16.5055 13.0488L15.8366 13.7921L15.1677 14.5355C15.3649 14.713 15.5388 14.899 15.7782 15.1401L16.4879 14.4357ZM15.8366 13.7921L16.5055 13.0488C16.1434 12.723 15.7499 12.6175 15.3607 12.6116L15.3454 13.6115L15.3301 14.6114C15.3591 14.6118 15.3299 14.6147 15.2762 14.5958C15.2497 14.5864 15.2249 14.5743 15.2034 14.5612C15.1827 14.5485 15.1707 14.5383 15.1676 14.5355L15.8366 13.7921Z" fill="#E0E561" mask="url(#path-1-inside-1_3_101)"/>
<path d="M34.1726 11.5158C34.7663 11.5109 35.3924 11.4929 35.9011 11.5656C36.0255 11.5834 36.1446 11.641 36.2634 11.7462C36.4066 11.873 36.5105 12.1363 36.5046 12.4181C36.4971 12.6989 36.5018 12.9697 36.5056 13.2277C36.5095 13.4887 36.5126 13.7383 36.5046 13.9953C36.4906 14.4405 36.5124 14.9425 36.5134 15.3634C36.5145 15.7972 36.4948 16.1962 36.4167 16.5617C36.4149 16.5649 36.4135 16.5691 36.4109 16.5734C36.392 16.6048 36.3633 16.6464 36.3279 16.6935C36.2552 16.7902 36.1787 16.8768 36.1482 16.9074C35.2164 17.838 34.2828 18.7694 33.3513 19.7013C32.7084 20.3341 32.1293 20.9914 31.4939 21.4875V21.4884C31.5024 21.4818 31.4984 21.4866 31.4734 21.4972C31.4501 21.5071 31.4181 21.5175 31.3796 21.5275C31.3002 21.5482 31.2198 21.5576 31.1697 21.5587C30.9508 21.5601 30.7401 21.4753 30.5847 21.3214V21.3205L29.8738 20.6574C29.5009 20.3102 29.0311 19.8711 28.5837 19.4425C28.277 19.1488 27.9787 18.8535 27.7146 18.588C27.7592 18.574 27.8031 18.5586 27.8464 18.5412C28.0335 18.6079 28.2323 18.6792 28.4373 18.755C28.9936 18.961 29.5956 19.1862 30.0886 19.3263C30.3333 19.3959 30.5776 19.4519 30.7898 19.4699C30.8958 19.4788 31.0144 19.4802 31.1316 19.4591C31.2465 19.4384 31.4029 19.3887 31.532 19.2599L33.2849 17.5089L33.2859 17.508C33.695 17.0982 34.3804 16.465 34.783 15.9787L34.8875 15.8517L34.8972 15.6877C34.933 15.0551 34.9093 14.2187 34.908 13.6144L34.907 13.1173L34.4099 13.1154L33.4089 13.1066C33.0293 13.1072 32.6404 13.1173 32.3533 13.1535C32.2258 13.1696 32.1248 13.2263 32.0779 13.2541C32.0184 13.2893 31.961 13.3308 31.9109 13.3703C31.8101 13.4496 31.702 13.5483 31.6033 13.6427L31.1296 14.1193L28.9343 16.3185L28.9333 16.3195C28.6454 16.6091 28.3913 16.9125 28.0652 17.2072C27.9549 17.3069 27.8502 17.3854 27.7566 17.4513C27.5624 17.3873 27.3794 17.3314 27.2156 17.2902C27.0067 17.2377 26.7691 17.1919 26.5642 17.2091C26.5564 17.2098 26.5483 17.2111 26.5398 17.2121C26.4882 17.1086 26.4661 17.0016 26.4666 16.8966C26.4675 16.69 26.5564 16.4545 26.7517 16.2453C27.0073 15.9714 27.2692 15.7174 27.5496 15.4396L27.5505 15.4386L29.0037 13.9943L29.0046 13.9923L30.3738 12.6173L30.3748 12.6164C30.7382 12.2487 31.0798 11.8682 31.4148 11.6359C31.4487 11.6125 31.5161 11.5846 31.6384 11.5636C31.7581 11.5432 31.883 11.5353 32.032 11.5255L32.033 11.5265C32.718 11.4986 33.4404 11.5219 34.1726 11.5158Z" fill="#E0E561" stroke="#E0E561" stroke-width="1.00001"/>
<path d="M27.5 18L30.5 20L35 16.5L35.5 13.5L32.5 12L27.5 18Z" fill="#E0E561"/>
<path d="M14.8281 25.8485C15.0078 25.835 15.1279 25.8591 15.2275 25.9022C15.3371 25.9497 15.4569 26.0348 15.6152 26.1913C15.9799 26.5517 16.3326 26.9123 16.7012 27.2811L18.9561 29.536V29.537L20.0234 30.6005L20.0264 30.6034C20.3229 30.8946 20.5476 31.0827 20.7383 31.3407C21.1257 31.8648 20.7473 32.6137 20.1025 32.6171C19.9175 32.6179 19.6817 32.5029 19.377 32.2333C19.2328 32.1058 19.0907 31.9606 18.9482 31.8085C18.8125 31.6635 18.6641 31.4992 18.5312 31.3661L18.208 31.0419L17.8574 31.3348C17.4864 31.6441 17.0761 32.0738 16.7656 32.3846L16.7637 32.3856L15.1006 34.0653L14.7461 34.4227L15.1055 34.7743C15.4388 35.1002 15.6113 35.3211 15.6758 35.5194C15.7242 35.6683 15.7298 35.8666 15.5342 36.2089L15.4854 36.2655C15.1972 36.5743 14.6493 36.5824 14.333 36.2655C13.8976 35.8291 13.331 35.3135 12.8506 34.8446C12.3475 34.3537 11.8892 33.8693 11.5615 33.4061C11.4801 33.291 11.4572 33.0273 11.6367 32.7245C11.8111 32.4305 12.0583 32.3039 12.2529 32.3251C12.5236 32.3545 12.663 32.4098 12.7754 32.4813C12.9102 32.5671 13.0336 32.6897 13.2734 32.9296L13.6406 33.2977L13.9941 32.9159C14.4065 32.4702 14.8589 32.0301 15.3213 31.578C15.7797 31.1298 16.248 30.6696 16.6729 30.1991L16.9863 29.8524L16.6602 29.5165C16.4161 29.2649 16.1704 29.0147 15.9229 28.7665L15.1748 28.0262C14.7806 27.6359 14.4357 27.345 14.2373 27.0038C14.1483 26.8507 14.1095 26.7171 14.1113 26.5907C14.1131 26.4668 14.1546 26.303 14.3027 26.0878C14.3798 25.9759 14.5473 25.8859 14.8281 25.8485Z" fill="#E0E561" stroke="#E0E561" stroke-width="1.00001"/>
<path d="M27.5 30L30 27L16.5 13H12.5V15.5L27.5 30Z" fill="#E0E561"/>
</svg>
